<svg id="Layer_1" data-name="Layer 1" xmlns="http://www.w3.org/2000/svg" viewBox="0 0 1000 1000"><defs><style>.cls-1{fill:#fff;}.cls-2{fill:#231f20;}</style></defs><rect class="cls-1" width="1000" height="1000" rx="70.45"/><path class="cls-2" d="M965.21,422.37A103.49,103.49,0,0,1,862.29,525.89h-.58a103.54,103.54,0,0,1-102.94-92.53v-22a102.57,102.57,0,0,1,13.29-40.77,103.44,103.44,0,0,1,89.65-51.75h.58A103.49,103.49,0,0,1,965.21,422.37Z"/><path class="cls-2" d="M965.78,681.14V784.66h-.57a154.59,154.59,0,0,1-39.55,103.5A152.7,152.7,0,0,1,914,899.85a154.49,154.49,0,0,1-101.4,40l-2.1,0H810c-.9,0-1.78,0-2.68,0A103.48,103.48,0,0,1,707,847.42v-22a103.1,103.1,0,0,1,31.27-63.66,52.37,52.37,0,0,0,6.08-5.43,51.48,51.48,0,0,0,12.9-23.42h1.51V670.14a102.6,102.6,0,0,1,10.35-35.32q1.36-2.76,2.94-5.43a103.5,103.5,0,0,1,89.65-51.75h.58a103.49,103.49,0,0,1,102.92,103.5Z"/><path class="cls-2" d="M641.39,111.84A103.88,103.88,0,0,0,603.51,74a102.79,102.79,0,0,0-51.75-13.86h-414A102.76,102.76,0,0,0,86,74a103.88,103.88,0,0,0-37.88,37.89,103.51,103.51,0,0,0,89.63,155.28H551.76a103.52,103.52,0,0,0,89.63-155.28Zm-137,143.8a1.59,1.59,0,0,1-.26-.14,1.05,1.05,0,0,0,.26.13l1.47.75C505.33,256.14,504.83,255.9,504.35,255.64Zm3,1.48a1.28,1.28,0,0,0-.24-.11l-.2-.1.44.19c.27.15.56.26.83.41Z"/><path class="cls-2" d="M641.19,370.61a103.78,103.78,0,0,0-37.68-37.43,102.58,102.58,0,0,0-51.46-13.73h-.29v-.59h-207v.59h-.87A312.36,312.36,0,0,0,293,323.61a307.48,307.48,0,0,0-103.52,37q-8.25,4.77-16.17,10A311.78,311.78,0,0,0,86,457.68q-5.37,8-10.24,16.45A307.62,307.62,0,0,0,38.47,577.64a311.66,311.66,0,0,0-4.25,51.46v.29a311.91,311.91,0,0,0,4.34,51.75A307.72,307.72,0,0,0,76.07,784.66q4.7,8.08,9.89,15.87a311.88,311.88,0,0,0,51.75,59.63,312.64,312.64,0,0,0,36.44,28q7.51,4.94,15.32,9.43A307.48,307.48,0,0,0,293,934.6a312.36,312.36,0,0,0,50.87,4.16h.87a312,312,0,0,0,51.76-4.45,307,307,0,0,0,81.14-25.86Q489.09,903,500,896.58q6.9-4.05,13.57-8.42a311.28,311.28,0,0,0,38.19-29.56,311.29,311.29,0,0,0,51.75-60.71q4.25-6.5,8.16-13.23,6.42-11,11.92-22.58A304,304,0,0,0,635.7,732.9a308.06,308.06,0,0,0,13.48-51.76,311.91,311.91,0,0,0,4.34-51.75h1.74v-207A102.65,102.65,0,0,0,641.19,370.61Zm-400,258.76A103.77,103.77,0,0,1,337,525.89c2.55-.2,5.11-.31,7.7-.31H345c2.69,0,5.36.1,8,.31a103,103,0,0,1,43.48,13.33A104.18,104.18,0,0,1,435,577.64a103.65,103.65,0,0,1,13.78,51.73v0A103.59,103.59,0,0,1,435,681.14a103.68,103.68,0,0,1-82.49,51.76q-3.72.27-7.5.27h-.29q-3.63,0-7.22-.27A103,103,0,0,1,293,719.2a103.74,103.74,0,0,1-51.76-89.81Z"/></svg>