<svg xmlns="http://www.w3.org/2000/svg" width="79.62" height="50" viewBox="0 0 79.62 50">
  <g id="behance-50" transform="translate(0 0)">
    <path id="behance" d="M32.069,97.766c4.4-2.1,6.69-5.28,6.69-10.229C38.76,77.778,31.489,75.4,23.1,75.4H0v48.989H23.748c8.9,0,17.265-4.271,17.265-14.224,0-6.151-2.917-10.7-8.943-12.4Zm-21.3-14h10.1c3.884,0,7.381,1.092,7.381,5.6,0,4.161-2.723,5.833-6.566,5.833H10.768V83.763Zm11.515,32.3H10.768V102.576H22.5c4.741,0,7.741,1.977,7.741,6.994C30.245,114.519,26.664,116.067,22.283,116.067ZM71.838,82.8H51.974V77.971H71.838V82.8Zm7.782,24.37c0-10.492-6.137-19.242-17.265-19.242-10.81,0-18.15,8.128-18.15,18.772,0,11.045,6.953,18.62,18.15,18.62,8.473,0,13.961-3.815,16.6-11.929h-8.6c-.926,3.027-4.741,4.631-7.7,4.631-5.709,0-8.708-3.345-8.708-9.026H79.537C79.579,108.409,79.62,107.787,79.62,107.165Zm-25.655-4.313c.318-4.658,3.414-7.575,8.086-7.575,4.893,0,7.354,2.875,7.769,7.575Z" transform="translate(0 -75.4)" fill="#fff"/>
  </g>
</svg>
