<svg width="55" height="36" viewBox="0 0 55 36" fill="none" xmlns="http://www.w3.org/2000/svg">
<path d="M22.3579 16.1307C25.294 14.6153 26.8266 12.3223 26.8266 8.75325C26.8266 1.71476 21.9701 0 16.3657 0H0.937424V35.332H16.7996C22.7457 35.332 28.3316 32.2515 28.3316 25.0734C28.3316 20.6369 26.3834 17.357 22.3579 16.1307V16.1307ZM8.1299 6.03157H14.8792C17.4736 6.03157 19.8096 6.81916 19.8096 10.0692C19.8096 13.0701 17.9907 14.2764 15.4239 14.2764H8.1299V6.03157V6.03157ZM15.8209 29.3304H8.1299V19.6001H15.9687C19.1356 19.6001 21.1391 21.0258 21.1391 24.6447C21.1391 28.2138 18.7478 29.3304 15.8209 29.3304V29.3304ZM48.9211 5.3337H35.6533V1.85433H48.9211V5.3337V5.3337ZM54.1192 22.91C54.1192 15.3431 50.0198 9.0324 42.5873 9.0324C35.3671 9.0324 30.4644 14.8945 30.4644 22.571C30.4644 30.5367 35.1086 36 42.5873 36C48.2471 36 51.9126 33.2484 53.6761 27.3963H47.9332C47.3146 29.5796 44.7663 30.7361 42.7904 30.7361C38.9772 30.7361 36.9736 28.3235 36.9736 24.226H54.0638C54.0915 23.8073 54.1192 23.3586 54.1192 22.91ZM36.9829 19.7995C37.1952 16.4398 39.2634 14.3362 42.3842 14.3362C45.6526 14.3362 47.2961 16.4099 47.5731 19.7995H36.9829Z" fill="white"/>
</svg>
