<svg width="45" height="43" viewBox="0 0 45 43" fill="none" xmlns="http://www.w3.org/2000/svg">
<path d="M44.9721 17.5006C44.9728 18.822 44.4502 20.0899 43.5185 21.027C42.5868 21.9641 41.3219 22.494 40.0005 22.5009H39.9726C38.7383 22.501 37.5476 22.0446 36.6296 21.2195C35.7116 20.3943 35.1312 19.2588 35.0002 18.0315V16.9697C35.0729 16.2753 35.2915 15.6042 35.6417 15.0002C36.0804 14.2398 36.7117 13.6084 37.472 13.1696C38.2323 12.7307 39.0948 12.4998 39.9726 12.5002H40.0005C41.3217 12.5077 42.5863 13.0379 43.5178 13.9748C44.4494 14.9118 44.9722 16.1793 44.9721 17.5006Z" fill="white"/>
<path d="M45 30.0003V35.0006H44.9721C44.9748 36.8461 44.2942 38.6272 43.0615 40.0005C42.8848 40.1988 42.6973 40.3873 42.5001 40.5652C41.1557 41.7834 39.4139 42.4705 37.6 42.4982C37.5658 42.4982 37.5325 42.4982 37.4984 42.4982H37.4705C37.4255 42.4982 37.3846 42.4982 37.341 42.4982C36.5182 42.4785 35.7132 42.2545 34.9984 41.8464C34.2259 41.4064 33.5842 40.7691 33.1391 39.9996C32.79 39.396 32.5722 38.7255 32.4998 38.032V36.9692C32.6237 35.7978 33.1589 34.7083 34.0103 33.8943C34.1148 33.8145 34.2131 33.7269 34.3043 33.6322C34.6075 33.3168 34.8224 32.9272 34.9274 32.5025H35.0002V29.4689C35.0626 28.8747 35.2319 28.2968 35.5001 27.7629C35.5442 27.673 35.5914 27.5855 35.6417 27.5003C36.0808 26.7403 36.7121 26.1092 37.4724 25.6704C38.2326 25.2317 39.0949 25.0007 39.9727 25.0008H40.0006C41.3217 25.0082 42.5861 25.5382 43.5177 26.475C44.4493 27.4117 44.9721 28.6792 44.9721 30.0003H45Z" fill="white"/>
<path d="M29.3299 2.49995C28.8912 1.73984 28.2601 1.10863 27.5001 0.669784C26.7401 0.230941 25.8779 -6.29455e-05 25.0003 1.28657e-08H4.99932C3.89875 0.000384326 2.82905 0.36382 1.95603 1.03397C1.08302 1.70411 0.455458 2.64354 0.170637 3.70662C-0.114185 4.76969 -0.0403588 5.89703 0.380671 6.91389C0.801701 7.93074 1.54642 8.7803 2.49937 9.33087C3.2588 9.77128 4.12144 10.0024 4.99932 10.0007H25.0003C25.8779 10.0004 26.7401 9.76921 27.5 9.33023C28.26 8.89126 28.8911 8.26 29.3299 7.49989C29.7686 6.73978 29.9996 5.87758 29.9996 4.99992C29.9996 4.12227 29.7686 3.26007 29.3299 2.49995ZM22.7098 9.4464L22.6977 9.43966C22.7015 9.44211 22.7056 9.44422 22.7098 9.44595C22.7332 9.45809 22.757 9.47068 22.7813 9.48236C22.757 9.47068 22.7332 9.45899 22.7098 9.4464ZM22.8532 9.51788C22.8495 9.51563 22.8456 9.51382 22.8415 9.51248L22.8325 9.50799L22.8532 9.51698C22.8662 9.52417 22.8802 9.52957 22.8937 9.53631C22.882 9.53047 22.8662 9.52417 22.8532 9.51788Z" fill="white"/>
<path d="M29.3201 15.0002C28.8808 14.2497 28.2536 13.6266 27.5003 13.1921C26.7445 12.7561 25.8869 12.5274 25.0143 12.529H25.0004V12.5002H14.9997V12.529H14.9574C14.1343 12.5288 13.3124 12.5959 12.5002 12.7295C10.7395 13.0202 9.04568 13.6258 7.49985 14.5174C7.23371 14.6711 6.97342 14.8321 6.71853 15.0002C5.04649 16.1077 3.61217 17.5376 2.4995 19.2062C2.32657 19.4651 2.16174 19.7299 2.00499 20.0005C1.11018 21.5458 0.501048 23.2396 0.206793 25.0009C0.0694104 25.8223 0.000243321 26.6536 0 27.4864L0 27.5004C0.000593106 28.3381 0.0708149 29.1743 0.20994 30.0003C0.508256 31.7627 1.12246 33.4567 2.02298 35.0007C2.17283 35.2614 2.33197 35.5162 2.5004 35.7649C3.20822 36.8272 4.04828 37.7953 5.00035 38.6456C5.55298 39.1392 6.14123 39.5913 6.76034 39.9983C7.0022 40.1572 7.249 40.309 7.50075 40.4537C9.04601 41.3463 10.7396 41.9529 12.5002 42.2443C13.3124 42.3779 14.1343 42.445 14.9574 42.4448H14.9997C15.8375 42.4427 16.6737 42.371 17.4996 42.2303C18.8578 41.9972 20.1771 41.5767 21.4197 40.981C21.7884 40.8039 22.148 40.6127 22.4986 40.4074C22.721 40.2771 22.9395 40.1414 23.1541 40.0006C23.8044 39.5729 24.4206 39.0956 24.9972 38.5728C25.9526 37.7063 26.7928 36.7208 27.4972 35.6404C27.6333 35.4306 27.7645 35.2174 27.891 35.0007C28.0978 34.6469 28.2902 34.2814 28.4669 33.9105C28.6861 33.4511 28.8811 32.9805 29.0513 32.5007C29.3404 31.6877 29.5583 30.8511 29.7022 30.0003C29.8417 29.1743 29.9121 28.3381 29.9126 27.5004H29.9962V17.5006C29.9966 16.6219 29.7633 15.7589 29.3201 15.0002ZM9.9998 27.4977C10.0002 26.2351 10.477 25.0192 11.3349 24.0929C12.1928 23.1666 13.3687 22.5981 14.6275 22.5009C14.7506 22.4915 14.8747 22.4861 14.9997 22.4861H15.015C15.1449 22.4861 15.2735 22.4906 15.4007 22.5009C16.14 22.5564 16.8576 22.7763 17.501 23.1447C18.1907 23.5379 18.7772 24.0894 19.2119 24.7538C19.6466 25.4182 19.9172 26.1764 20.0014 26.9659C20.02 27.143 20.0293 27.3209 20.0293 27.499C20.0293 27.6768 20.02 27.8545 20.0014 28.0313C19.9284 28.7248 19.7104 29.3952 19.3617 29.999C18.9167 30.7711 18.2746 31.4112 17.501 31.8538C16.8502 32.2276 16.1232 32.4493 15.3746 32.5025C15.2547 32.5109 15.134 32.5153 15.0123 32.5156H14.9983C14.881 32.5156 14.765 32.5111 14.6495 32.5025C13.3858 32.4107 12.2037 31.8438 11.3411 30.9157C10.4784 29.9877 9.99919 28.7674 9.9998 27.5004V27.4977Z" fill="white"/>
</svg>
