<svg width="50" height="64" viewBox="0 0 50 64" fill="none" xmlns="http://www.w3.org/2000/svg">
<path d="M25.3142 28.5666L25.3231 28.5711L25.3338 28.5761L25.3724 28.5939C25.3598 28.5875 25.3465 28.5825 25.3338 28.5755L25.3142 28.5666Z" fill="#231F20"/>
<path d="M22.0113 43.3217C21.5875 42.5861 20.976 41.9761 20.2393 41.5541C19.6268 41.2032 18.9435 40.9936 18.2395 40.9409C18.1184 40.9316 17.9959 40.9269 17.8718 40.9269H17.8585C17.7396 40.9269 17.6219 40.932 17.5041 40.9409C16.3047 41.0328 15.1842 41.5743 14.367 42.4571C13.5497 43.3399 13.0961 44.4988 13.0969 45.7018C13.0967 46.9086 13.5535 48.0706 14.3754 48.9542C15.1973 49.8377 16.3233 50.3772 17.5269 50.4641C17.637 50.4717 17.7478 50.4761 17.8592 50.4761H17.8725C17.9883 50.4761 18.1035 50.4717 18.218 50.4641C18.9297 50.4136 19.6208 50.2033 20.24 49.8489C20.9766 49.4274 21.588 48.8179 22.012 48.0826C22.3439 47.5075 22.5513 46.8691 22.6208 46.2087C22.6385 46.0406 22.6474 45.8716 22.6474 45.7025C22.6474 45.5334 22.6385 45.3644 22.6208 45.1962C22.5509 44.5356 22.3433 43.897 22.0113 43.3217Z" fill="#231F20"/>
<path d="M25.1876 28.5021L25.199 28.5084C25.2212 28.5204 25.2446 28.5312 25.2674 28.5426C25.2446 28.5312 25.2212 28.5198 25.199 28.5078C25.1951 28.5063 25.1912 28.5044 25.1876 28.5021Z" fill="#231F20"/>
<path d="M43.7765 0.498245H6.2235C4.57292 0.498245 2.98995 1.15393 1.82282 2.32107C0.655688 3.4882 0 5.07117 0 6.72174L0 57.5027C0 59.1533 0.655688 60.7362 1.82282 61.9034C2.98995 63.0705 4.57292 63.7262 6.2235 63.7262H43.7765C45.4271 63.7262 47.01 63.0705 48.1772 61.9034C49.3443 60.7362 50 59.1533 50 57.5027V6.72174C50 5.07117 49.3443 3.4882 48.1772 2.32107C47.01 1.15393 45.4271 0.498245 43.7765 0.498245V0.498245ZM36.9043 35.673C37.029 34.5037 37.582 33.4219 38.4567 32.636C39.3314 31.8501 40.466 31.4157 41.6419 31.4164H41.6685C42.9315 31.4164 44.1428 31.9181 45.0359 32.8112C45.929 33.7043 46.4307 34.9156 46.4307 36.1786C46.4307 37.4417 45.929 38.6529 45.0359 39.546C44.1428 40.4391 42.9315 40.9409 41.6685 40.9409H41.6419C40.4663 40.9409 39.3323 40.5062 38.458 39.7204C37.5838 38.9346 37.031 37.8532 36.9062 36.6843L36.9043 35.673ZM32.1427 45.7025H32.063C32.0622 46.5003 31.9951 47.2966 31.8624 48.0833C31.7253 48.8935 31.518 49.6904 31.2428 50.4647C31.0804 50.9215 30.8943 51.3695 30.6853 51.807C30.5165 52.1614 30.3338 52.5076 30.1372 52.8455C30.0176 53.0524 29.8917 53.255 29.7619 53.4543C29.3548 54.0798 28.899 54.6723 28.3987 55.2263C28.0774 55.5839 27.7377 55.9246 27.3811 56.2471C26.8315 56.7451 26.2441 57.1998 25.6243 57.6071C25.4201 57.7413 25.2119 57.8704 24.9997 57.9944C24.6655 58.1898 24.3227 58.3718 23.9713 58.5406C23.5306 58.7522 23.0792 58.9406 22.6189 59.1051C21.0906 59.6519 19.4798 59.9325 17.8566 59.9347H17.8168C17.0324 59.9353 16.2493 59.8718 15.4752 59.7449C13.7984 59.4683 12.1852 58.8916 10.713 58.0425C10.4738 57.9041 10.2388 57.7594 10.008 57.6084C9.41852 57.2205 8.85821 56.7901 8.33154 56.3205C7.94628 55.9763 7.57995 55.6114 7.23417 55.2276C6.76615 54.7097 6.33716 54.1578 5.95074 53.5765C5.7921 53.3385 5.64064 53.0953 5.49635 52.8468C4.63888 51.376 4.05463 49.7621 3.77182 48.0833C3.63901 47.2966 3.57212 46.5002 3.57184 45.7025V45.6892C3.5716 44.896 3.63701 44.1041 3.76739 43.3217C4.04758 41.6443 4.62814 40.0313 5.48116 38.5601C5.62967 38.3027 5.78662 38.0496 5.952 37.8006C7.01086 36.211 8.37699 34.8491 9.97 33.7953C10.213 33.6339 10.4611 33.4789 10.7142 33.3352C12.1867 32.4872 13.7999 31.9112 15.4765 31.6347C16.2505 31.5078 17.0337 31.4443 17.818 31.4449H17.8579V31.4177H27.3824V31.4449H27.3957C28.2268 31.4435 29.0436 31.6619 29.7632 32.0777C30.4845 32.4927 31.084 33.09 31.5017 33.8098C31.9193 34.5295 32.1404 35.3465 32.1427 36.1786V45.7025ZM31.5048 26.6535C31.0871 27.3776 30.486 27.9789 29.7621 28.3969C29.0382 28.815 28.217 29.035 27.3811 29.035H8.33217C7.49613 29.0366 6.67461 28.8164 5.95137 28.397C5.22753 27.9789 4.62648 27.3777 4.20859 26.6538C3.79071 25.9298 3.57071 25.1086 3.57071 24.2727C3.57071 23.4368 3.79071 22.6156 4.20859 21.8917C4.62648 21.1677 5.22753 20.5665 5.95137 20.1484C6.67461 19.729 7.49613 19.5089 8.33217 19.5105H27.3811C28.217 19.5106 29.0381 19.7307 29.7619 20.1487C30.4857 20.5667 31.0868 21.1679 31.5047 21.8918C31.9226 22.6156 32.1426 23.4368 32.1426 24.2726C32.1427 25.1085 31.9227 25.9296 31.5048 26.6535ZM46.4282 52.8455H46.4016C46.4037 54.6029 45.7556 56.299 44.5821 57.6071C44.4137 57.7959 44.2352 57.9755 44.0474 58.145C42.7673 59.3045 41.1094 59.959 39.3826 59.9866H39.2858H39.2592C39.218 59.9866 39.1769 59.9866 39.1326 59.9866C37.9788 59.9574 36.8749 59.5099 36.0265 58.7274C35.178 57.945 34.6428 56.8809 34.5204 55.7332V54.7207C34.6379 53.605 35.1477 52.5674 35.9588 51.7924C36.0585 51.7154 36.152 51.6308 36.2386 51.5393C36.5275 51.2391 36.7323 50.868 36.8322 50.4634H36.9012V47.577C36.9607 47.0112 37.1222 46.4608 37.3777 45.9524C37.4199 45.8681 37.4648 45.7837 37.5125 45.6993C37.9315 44.9754 38.5337 44.3745 39.2586 43.9571C39.9835 43.5398 40.8054 43.3206 41.6419 43.3217H41.6685C42.9267 43.3287 44.131 43.8335 45.0183 44.7257C45.9055 45.6179 46.4035 46.825 46.4035 48.0833H46.4301L46.4282 52.8455Z" fill="#231F20"/>
</svg>
