<svg width="39" height="36" viewBox="0 0 39 36" fill="none" xmlns="http://www.w3.org/2000/svg">
<path d="M10.8625 14.1662C10.5359 13.9331 10.2084 13.8166 9.88177 13.8166H8.41361V22.2115H9.88261C10.2092 22.2115 10.5367 22.095 10.8634 21.862C11.19 21.6289 11.3533 21.2794 11.3533 20.8125V15.2156C11.3525 14.7496 11.1883 14.3992 10.8625 14.1662V14.1662ZM34.769 0H4.44603C2.40878 0 0.755417 1.5742 0.750366 3.51964V32.4804C0.755417 34.4258 2.40878 36 4.44603 36H34.769C36.8071 36 38.4596 34.4258 38.4647 32.4804V3.51964C38.4596 1.5742 36.8062 0 34.769 0V0ZM13.7315 20.8278C13.7315 22.3393 12.7541 24.6295 9.66037 24.6246H5.75424V11.3287H9.74287C12.7263 11.3287 13.7298 13.6157 13.7306 15.128L13.7315 20.8278ZM22.2071 13.7033H17.7218V16.7906H20.4637V19.1668H17.7218V22.2533H22.2079V24.6295H16.9734C16.0339 24.6528 15.2527 23.944 15.2291 23.0472V12.9937C15.2064 12.0978 15.9497 11.3537 16.8884 11.3312H22.2079L22.2071 13.7033ZM30.9319 22.9677C29.8207 25.4387 27.8297 24.9469 26.9382 22.9677L23.6946 11.332H26.4365L28.9376 20.4702L31.4269 11.332H34.1696L30.9319 22.9677V22.9677Z" fill="white"/>
</svg>
