<svg width="37" height="36" viewBox="0 0 37 36" fill="none" xmlns="http://www.w3.org/2000/svg">
<path d="M18.9374 0C9.01217 0 0.937424 8.07474 0.937424 18C0.937424 27.9253 9.01217 36 18.9374 36C28.8627 36 36.9374 27.9253 36.9374 18C36.9374 8.07474 28.8627 0 18.9374 0ZM30.8385 8.30076C32.9798 10.917 34.2765 14.2492 34.3104 17.8781C33.8035 17.7709 28.7204 16.7399 23.6046 17.3833C23.1871 16.3642 22.7931 15.4677 22.2533 14.3629C27.9379 12.042 30.5143 8.73922 30.8385 8.30076V8.30076ZM29.1293 6.52282C28.8527 6.91672 26.5384 10.0275 21.0713 12.0766C18.5519 7.44772 15.7595 3.64507 15.3345 3.07604C20.2102 1.90074 25.3482 3.16822 29.1293 6.52282V6.52282ZM12.4009 4.10952C12.8062 4.66541 15.5536 8.47277 18.1011 13.0013C10.9094 14.9111 4.57502 14.8836 3.88739 14.8745C4.88436 10.1036 8.09954 6.13836 12.4009 4.10952ZM3.56267 18.0234C3.56267 17.8662 3.56579 17.7097 3.5705 17.5536C4.24318 17.5674 11.6937 17.6634 19.3717 15.3656C19.8119 16.227 20.2323 17.1014 20.6182 17.9748C15.0586 19.5407 10.0074 24.0373 7.51519 28.3035C5.05957 25.5778 3.56267 21.9723 3.56267 18.0234ZM9.50027 30.1526C11.1063 26.8696 15.4648 22.6317 21.6633 20.5171C23.8218 26.1263 24.7145 30.8274 24.9431 32.1763C19.9995 34.2821 14.0549 33.7043 9.50027 30.1526V30.1526ZM27.5278 30.7687C27.3703 29.8335 26.5519 25.3327 24.541 19.8067C29.3589 19.0354 33.5918 20.2979 34.1178 20.4639C33.4325 24.7419 30.977 28.4364 27.5278 30.7687Z" fill="white"/>
</svg>
