<svg id="dribbble-50" xmlns="http://www.w3.org/2000/svg" width="50" height="50" viewBox="0 0 50 50">
  <path id="dribbble" d="M33,8A25,25,0,1,0,58,33,25.028,25.028,0,0,0,33,8ZM49.529,19.529a21.252,21.252,0,0,1,4.822,13.3,49.9,49.9,0,0,0-14.869-.687c-.58-1.415-1.127-2.661-1.877-4.195,7.9-3.223,11.474-7.811,11.924-8.42Zm-2.374-2.469c-.384.547-3.6,4.868-11.192,7.714A113.982,113.982,0,0,0,28,12.272,21.3,21.3,0,0,1,47.155,17.059ZM23.921,13.708a136.252,136.252,0,0,1,7.917,12.35,79.65,79.65,0,0,1-19.741,2.6A21.432,21.432,0,0,1,23.921,13.708ZM11.646,33.033c0-.218,0-.436.011-.653A78.77,78.77,0,0,0,33.6,29.341c.611,1.2,1.2,2.411,1.731,3.624-7.722,2.175-14.737,8.42-18.2,14.345A21.268,21.268,0,0,1,11.646,33.033Zm8.247,16.846c2.231-4.56,8.284-10.446,16.893-13.383a88.762,88.762,0,0,1,4.555,16.193,21.31,21.31,0,0,1-21.448-2.811Zm25.038.856a92.165,92.165,0,0,0-4.148-15.225,31.342,31.342,0,0,1,13.3.913A21.391,21.391,0,0,1,44.931,50.734Z" transform="translate(-8 -8)" fill="#fff"/>
</svg>
