<svg id="github-50" xmlns="http://www.w3.org/2000/svg" width="51.281" height="50" viewBox="0 0 51.281 50">
  <path id="github" d="M17.152,48.26c0,.207-.238.372-.538.372-.341.031-.579-.134-.579-.372,0-.207.238-.372.538-.372C16.884,47.857,17.152,48.022,17.152,48.26Zm-3.215-.465c-.072.207.134.445.445.507a.485.485,0,0,0,.641-.207c.062-.207-.134-.445-.445-.538a.531.531,0,0,0-.641.238Zm4.57-.176c-.3.072-.507.269-.476.507.031.207.3.341.61.269s.507-.269.476-.476S18.807,47.588,18.507,47.619ZM25.31,8C10.97,8,0,18.887,0,33.227A25.921,25.921,0,0,0,17.525,57.958c1.323.238,1.789-.579,1.789-1.251,0-.641-.031-4.177-.031-6.348,0,0-7.237,1.551-8.757-3.081,0,0-1.179-3.009-2.874-3.784,0,0-2.368-1.623.165-1.592a5.457,5.457,0,0,1,3.991,2.667c2.264,3.991,6.059,2.843,7.537,2.161A5.746,5.746,0,0,1,21,43.246C15.219,42.6,9.388,41.767,9.388,31.821a7.836,7.836,0,0,1,2.44-6.09,9.768,9.768,0,0,1,.269-7.02c2.161-.672,7.134,2.792,7.134,2.792a24.425,24.425,0,0,1,12.986,0s4.973-3.474,7.134-2.792a9.764,9.764,0,0,1,.269,7.02c1.654,1.83,2.667,3.257,2.667,6.09,0,9.977-6.09,10.773-11.869,11.425a6.114,6.114,0,0,1,1.758,4.8c0,3.484-.031,7.8-.031,8.643,0,.672.476,1.489,1.789,1.251a25.682,25.682,0,0,0,17.349-24.71C51.281,18.887,39.65,8,25.31,8ZM10.049,43.659c-.134.1-.1.341.072.538.165.165.4.238.538.1.134-.1.1-.341-.072-.538C10.422,43.6,10.184,43.525,10.049,43.659Zm-1.117-.837c-.072.134.031.3.238.4a.308.308,0,0,0,.445-.072c.072-.134-.031-.3-.238-.4C9.171,42.687,9.005,42.718,8.933,42.822Zm3.35,3.681c-.165.134-.1.445.134.641.238.238.538.269.672.1.134-.134.072-.445-.134-.641C12.727,46.368,12.417,46.337,12.283,46.5ZM11.1,44.982c-.165.1-.165.372,0,.61s.445.341.579.238a.472.472,0,0,0,0-.641c-.145-.238-.414-.341-.579-.207Z" transform="translate(0 -8)" fill="#fff"/>
</svg>
