<svg width="35" height="36" viewBox="0 0 35 36" fill="none" xmlns="http://www.w3.org/2000/svg">
<path d="M11.6857 28.9871C11.6857 29.136 11.5237 29.2551 11.3194 29.2551C11.087 29.2775 10.925 29.1584 10.925 28.9871C10.925 28.8383 11.087 28.7192 11.2913 28.7192C11.5026 28.6968 11.6857 28.8159 11.6857 28.9871ZM9.49509 28.6522C9.44578 28.801 9.58666 28.9723 9.79798 29.0169C9.98112 29.0914 10.1924 29.0169 10.2347 28.868C10.277 28.7192 10.1431 28.5479 9.93181 28.481C9.74867 28.4288 9.5444 28.5033 9.49509 28.6522ZM12.6085 28.5256C12.4042 28.5777 12.2633 28.7192 12.2844 28.8904C12.3056 29.0393 12.4887 29.136 12.7 29.0839C12.9043 29.0318 13.0452 28.8904 13.0241 28.7415C13.0029 28.6001 12.8127 28.5033 12.6085 28.5256ZM17.2433 0C7.47351 0 0 7.83859 0 18.1635C0 26.4189 4.9166 33.4834 11.9393 35.9697C12.8409 36.1409 13.1579 35.5528 13.1579 35.0689C13.1579 34.6074 13.1368 32.0615 13.1368 30.4983C13.1368 30.4983 8.20607 31.6149 7.17062 28.28C7.17062 28.28 6.36763 26.1137 5.21244 25.5554C5.21244 25.5554 3.5994 24.3867 5.32514 24.4091C5.32514 24.4091 7.07905 24.5579 8.04406 26.3296C9.58666 29.203 12.1717 28.3767 13.179 27.8854C13.341 26.6944 13.7989 25.8681 14.306 25.3768C10.3685 24.9152 6.3958 24.3123 6.3958 17.1511C6.3958 15.104 6.93113 14.0767 8.05815 12.7666C7.87501 12.2827 7.27628 10.2877 8.24129 7.71204C9.71345 7.22818 13.1015 9.72193 13.1015 9.72193C14.5103 9.30507 16.0247 9.08919 17.5251 9.08919C19.0254 9.08919 20.5398 9.30507 21.9486 9.72193C21.9486 9.72193 25.3367 7.22073 26.8088 7.71204C27.7738 10.2951 27.1751 12.2827 26.992 12.7666C28.119 14.0842 28.8093 15.1114 28.8093 17.1511C28.8093 24.3346 24.6605 24.9078 20.723 25.3768C21.371 25.9649 21.9204 27.0815 21.9204 28.8308C21.9204 31.3395 21.8993 34.4436 21.8993 35.054C21.8993 35.5379 22.2233 36.126 23.1179 35.9548C30.1617 33.4834 34.9374 26.4189 34.9374 18.1635C34.9374 7.83859 27.0131 0 17.2433 0ZM6.84661 25.6745C6.75504 25.749 6.77617 25.9202 6.89592 26.0616C7.00862 26.1807 7.17062 26.2328 7.26219 26.1361C7.35376 26.0616 7.33263 25.8904 7.21289 25.749C7.10019 25.6299 6.93818 25.5778 6.84661 25.6745ZM6.08587 25.0716C6.03657 25.1683 6.10701 25.2875 6.24788 25.3619C6.36058 25.4363 6.50146 25.414 6.55077 25.3098C6.60007 25.213 6.52964 25.0939 6.38876 25.0195C6.24788 24.9748 6.13518 24.9971 6.08587 25.0716ZM8.36808 27.7217C8.25538 27.8184 8.29764 28.0418 8.45965 28.1832C8.62165 28.3544 8.82593 28.3767 8.9175 28.2576C9.00907 28.1609 8.9668 27.9375 8.82593 27.7961C8.67096 27.6249 8.45965 27.6026 8.36808 27.7217ZM7.56508 26.6274C7.45238 26.7018 7.45238 26.8954 7.56508 27.0666C7.67778 27.2378 7.86796 27.3122 7.95953 27.2378C8.07224 27.141 8.07224 26.9475 7.95953 26.7763C7.86092 26.605 7.67778 26.5306 7.56508 26.6274Z" fill="white"/>
</svg>
