<svg width="39" height="36" viewBox="0 0 39 36" fill="none" xmlns="http://www.w3.org/2000/svg">
<path d="M35.669 0H3.33402C1.85239 0 0.64856 1.16518 0.64856 2.59554V33.4045C0.64856 34.8348 1.85239 36 3.33402 36H35.669C37.1506 36 38.3628 34.8348 38.3628 33.4045V2.59554C38.3628 1.16518 37.1506 0 35.669 0ZM12.047 30.8571H6.45723V13.6768H12.0554V30.8571H12.047ZM9.25213 11.3304C7.45902 11.3304 6.01106 9.94018 6.01106 8.23661C6.01106 6.53304 7.45902 5.14286 9.25213 5.14286C11.0368 5.14286 12.4932 6.53304 12.4932 8.23661C12.4932 9.94821 11.0452 11.3304 9.25213 11.3304V11.3304ZM33.0003 30.8571H27.4106V22.5C27.4106 20.5071 27.3685 17.9438 24.5062 17.9438C21.5935 17.9438 21.1473 20.1134 21.1473 22.3554V30.8571H15.5575V13.6768H20.92V16.0232H20.9958C21.745 14.6732 23.5718 13.2509 26.2909 13.2509C31.9481 13.2509 33.0003 16.8107 33.0003 21.4393V30.8571V30.8571Z" fill="white"/>
</svg>
