<svg xmlns="http://www.w3.org/2000/svg" width="50.001" height="50" viewBox="0 0 50.001 50">
  <g id="linkedin-50" transform="translate(0 0)">
    <path id="linkedin" d="M11.192,50.01H.826V16.628H11.192ZM6,12.074a6.032,6.032,0,1,1,6-6.06A6.054,6.054,0,0,1,6,12.074ZM49.99,50.01H39.646V33.76c0-3.873-.078-8.839-5.39-8.839-5.39,0-6.216,4.208-6.216,8.56V50.01H17.686V16.628h9.942v4.554h.145a10.893,10.893,0,0,1,9.808-5.391C48.073,15.79,50,22.7,50,31.673V50.01Z" transform="translate(0 -0.01)" fill="#fff"/>
  </g>
</svg>
