<svg xmlns="http://www.w3.org/2000/svg" width="74.121" height="70" viewBox="0 0 74.121 70">
  <defs>
    <style>
      .cls-1 {
        fill: #fff;
      }
    </style>
  </defs>
  <g id="home-logo" transform="translate(0)">
    <path id="Path_1" data-name="Path 1" class="cls-1" d="M794.984,286.3a8.232,8.232,0,0,1-8.189,8.236h-.046a8.236,8.236,0,0,1-8.19-7.362v-1.748a8.235,8.235,0,0,1,8.19-7.362h.046A8.235,8.235,0,0,1,794.984,286.3Z" transform="translate(-720.909 -257.471)"/>
    <path id="Path_2" data-name="Path 2" class="cls-1" d="M743.529,564.365V572.6h-.046a12.3,12.3,0,0,1-3.147,8.236,12.053,12.053,0,0,1-.925.93,12.3,12.3,0,0,1-8.071,3.184h-.427a8.225,8.225,0,0,1-7.974-7.357v-1.75a8.2,8.2,0,0,1,2.488-5.065,4.271,4.271,0,0,0,.484-.432,4.107,4.107,0,0,0,1.026-1.861h.12v-5a8.157,8.157,0,0,1,.823-2.81q.109-.222.233-.432a8.237,8.237,0,0,1,7.134-4.117h.046a8.235,8.235,0,0,1,8.189,8.235Z" transform="translate(-669.409 -514.95)"/>
    <path id="Path_3" data-name="Path 3" class="cls-1" d="M48.309,4.118A8.233,8.233,0,0,0,41.178,0H8.234a8.236,8.236,0,0,0,0,16.472H41.178A8.237,8.237,0,0,0,48.309,4.118Zm-10.9,11.442-.02-.011.02.01c.039.02.078.041.118.06C37.483,15.6,37.444,15.58,37.405,15.559Zm.236.118-.019-.009-.015-.007.034.015c.021.012.044.021.067.032Z" transform="translate(0.001 0)"/>
    <path id="Path_4" data-name="Path 4" class="cls-1" d="M48.294,282.178a8.25,8.25,0,0,0-3-2.978,8.165,8.165,0,0,0-4.095-1.092h-.023v-.047H24.706v.047h-.07a24.91,24.91,0,0,0-4.053.331,24.46,24.46,0,0,0-8.23,2.944q-.658.38-1.287.8a24.839,24.839,0,0,0-6.949,6.928q-.427.64-.815,1.308A24.489,24.489,0,0,0,.341,298.65,24.861,24.861,0,0,0,0,302.744v.023a24.9,24.9,0,0,0,.346,4.118,24.447,24.447,0,0,0,2.986,8.236q.37.644.786,1.259a24.8,24.8,0,0,0,7.017,6.973q.6.392,1.22.75a24.444,24.444,0,0,0,8.235,2.949,24.892,24.892,0,0,0,4.047.33h.07a24.9,24.9,0,0,0,4.118-.353,24.541,24.541,0,0,0,6.457-2.058q.911-.438,1.777-.945.549-.322,1.08-.67a24.808,24.808,0,0,0,7.154-7.182q.336-.518.649-1.054c.341-.583.658-1.185.949-1.8A24.122,24.122,0,0,0,47.851,311a24.482,24.482,0,0,0,1.072-4.118,24.822,24.822,0,0,0,.347-4.118h.138V286.3A8.159,8.159,0,0,0,48.294,282.178ZM16.471,302.763a8.258,8.258,0,0,1,7.622-8.23c.2-.016.407-.024.613-.024h.025c.214,0,.426.007.635.024a8.255,8.255,0,0,1,7.578,7.354,8.4,8.4,0,0,1,.046.878h0a8.372,8.372,0,0,1-.046.878,8.2,8.2,0,0,1-1.054,3.239,8.287,8.287,0,0,1-3.065,3.055,8.2,8.2,0,0,1-3.5,1.068q-.3.021-.6.021H24.7c-.193,0-.384-.007-.575-.021a8.257,8.257,0,0,1-7.659-8.239Z" transform="translate(0 -257.471)"/>
  </g>
</svg>
