<svg xmlns="http://www.w3.org/2000/svg" xmlns:xlink="http://www.w3.org/1999/xlink" width="84.71" height="80" viewBox="0 0 84.71 80">
  <defs>
    <style>
      .cls-1 {
        fill: url(#linear-gradient);
      }
    </style>
    <linearGradient id="linear-gradient" x1="-0.877" y1="1" x2="1.487" y2="-0.914" gradientUnits="objectBoundingBox">
      <stop offset="0" stop-color="#ea8bdb"/>
      <stop offset="1" stop-color="#f96f06"/>
    </linearGradient>
  </defs>
  <g id="home-logo" transform="translate(0)">
    <path id="Path_1" data-name="Path 1" class="cls-1" d="M797.331,287.473a9.408,9.408,0,0,1-9.359,9.413h-.052a9.413,9.413,0,0,1-9.36-8.414v-2a9.411,9.411,0,0,1,9.36-8.413h.052A9.412,9.412,0,0,1,797.331,287.473Z" transform="translate(-712.674 -254.529)"/>
    <path id="Path_2" data-name="Path 2" class="cls-1" d="M746.471,565.541v9.413h-.052a14.059,14.059,0,0,1-3.6,9.412,13.75,13.75,0,0,1-1.057,1.063,14.056,14.056,0,0,1-9.224,3.639h-.487a9.348,9.348,0,0,1-4.41-1.227,9.443,9.443,0,0,1-3.5-3.476,9.334,9.334,0,0,1-1.2-3.7v-2a9.371,9.371,0,0,1,2.843-5.788,4.873,4.873,0,0,0,.553-.493,4.694,4.694,0,0,0,1.173-2.127h.137v-5.711a9.321,9.321,0,0,1,.941-3.212q.124-.254.267-.494a9.414,9.414,0,0,1,8.153-4.705h.052a9.411,9.411,0,0,1,9.359,9.411Z" transform="translate(-661.761 -509.068)"/>
    <path id="Path_3" data-name="Path 3" class="cls-1" d="M55.211,4.706A9.409,9.409,0,0,0,47.06,0H9.41a9.413,9.413,0,0,0,0,18.826H47.06a9.414,9.414,0,0,0,8.15-14.12ZM42.749,17.782l-.023-.013.023.012c.044.023.089.047.135.069C42.838,17.828,42.793,17.806,42.749,17.782Zm.27.135a.1.1,0,0,0-.022-.01L42.98,17.9l.039.017c.025.014.051.024.076.036Z" transform="translate(0.001 0)"/>
    <path id="Path_4" data-name="Path 4" class="cls-1" d="M55.193,282.766a9.429,9.429,0,0,0-3.426-3.4,9.331,9.331,0,0,0-4.68-1.248h-.026v-.054H28.236v.054h-.08a28.469,28.469,0,0,0-4.632.379,27.956,27.956,0,0,0-9.406,3.364q-.751.434-1.471.909a28.388,28.388,0,0,0-7.942,7.917q-.488.731-.931,1.5a27.987,27.987,0,0,0-3.385,9.413A28.412,28.412,0,0,0,0,306.271v.026A28.456,28.456,0,0,0,.4,311a27.939,27.939,0,0,0,3.413,9.413q.423.736.9,1.439a28.346,28.346,0,0,0,8.019,7.969q.683.449,1.394.857a27.933,27.933,0,0,0,9.411,3.371,28.445,28.445,0,0,0,4.626.377h.08a28.462,28.462,0,0,0,4.706-.4,28.049,28.049,0,0,0,7.379-2.352q1.041-.5,2.031-1.08.628-.368,1.234-.766a28.351,28.351,0,0,0,8.176-8.208q.384-.592.741-1.2c.389-.666.751-1.354,1.084-2.052a27.568,27.568,0,0,0,1.1-2.654A27.978,27.978,0,0,0,55.912,311a28.367,28.367,0,0,0,.4-4.706h.157V287.473A9.325,9.325,0,0,0,55.193,282.766ZM18.824,306.292a9.437,9.437,0,0,1,8.711-9.406c.232-.018.465-.028.7-.028h.029c.245,0,.487.008.726.028a9.435,9.435,0,0,1,8.66,8.4,9.6,9.6,0,0,1,.052,1h0a9.567,9.567,0,0,1-.053,1,9.367,9.367,0,0,1-1.2,3.7,9.472,9.472,0,0,1-3.5,3.492,9.372,9.372,0,0,1-4,1.221q-.338.024-.682.025h-.026c-.221,0-.439-.008-.657-.025a9.436,9.436,0,0,1-8.753-9.416Z" transform="translate(0 -254.529)"/>
  </g>
</svg>
