<svg id="twitter-50" xmlns="http://www.w3.org/2000/svg" width="61.562" height="50" viewBox="0 0 61.562 50">
  <path id="twitter" d="M55.234,60.543c.039.547.039,1.094.039,1.641,0,16.68-12.7,35.9-35.9,35.9A35.655,35.655,0,0,1,0,92.418a26.1,26.1,0,0,0,3.047.156,25.268,25.268,0,0,0,15.664-5.391,12.639,12.639,0,0,1-11.8-8.75,15.912,15.912,0,0,0,2.383.2,13.345,13.345,0,0,0,3.32-.43A12.619,12.619,0,0,1,2.5,65.816V65.66a12.707,12.707,0,0,0,5.7,1.6A12.636,12.636,0,0,1,4.3,50.387a35.864,35.864,0,0,0,26.016,13.2A14.243,14.243,0,0,1,30,60.7a12.629,12.629,0,0,1,21.836-8.633,24.841,24.841,0,0,0,8.008-3.047A12.583,12.583,0,0,1,54.3,55.973a25.294,25.294,0,0,0,7.266-1.953,27.122,27.122,0,0,1-6.328,6.523Z" transform="translate(0 -48.082)" fill="#fff"/>
</svg>
