<svg width="41" height="36" viewBox="0 0 41 36" fill="none" xmlns="http://www.w3.org/2000/svg">
<path d="M36.5739 8.97184C36.5997 9.36557 36.5997 9.75939 36.5997 10.1531C36.5997 22.1624 28.2209 36 12.9067 36C8.18875 36 3.80597 34.5093 0.119232 31.9219C0.789569 32.0062 1.43404 32.0344 2.13016 32.0344C6.02307 32.0344 9.60672 30.6 12.4685 28.1532C8.80751 28.0688 5.73953 25.4531 4.68248 21.8531C5.19815 21.9374 5.71373 21.9937 6.25519 21.9937C7.00283 21.9937 7.75054 21.8812 8.44659 21.6844C4.63097 20.8406 1.76916 17.1844 1.76916 12.7687V12.6563C2.87772 13.3313 4.16689 13.7531 5.53319 13.8093C3.29022 12.178 1.82075 9.39371 1.82075 6.24369C1.82075 4.55622 2.23317 3.00934 2.95509 1.65933C7.05433 7.17183 13.2161 10.7718 20.1254 11.1656C19.9965 10.4906 19.9191 9.78753 19.9191 9.08439C19.9191 4.07808 23.6317 0 28.2465 0C30.6441 0 32.8097 1.09687 34.3309 2.86875C36.2128 2.47502 38.0175 1.7156 39.616 0.675005C38.9972 2.78443 37.6824 4.5563 35.9551 5.68123C37.6309 5.48445 39.2551 4.97808 40.7504 4.27503C39.6162 6.07496 38.1981 7.67802 36.5739 8.97184V8.97184Z" fill="white"/>
</svg>
